solid ascii
  facet normal 8.835188e-001 4.683956e-001 0.000000e+000
    outer loop
      vertex   3.110764e+001 -2.742590e+001 1.000000e+001
      vertex   3.110764e+001 -2.742590e+001 0.000000e+000
      vertex   1.656786e+001 0.000000e+000 1.000000e+001
    endloop
  endfacet
  facet normal 8.835188e-001 4.683956e-001 0.000000e+000
    outer loop
      vertex   1.656786e+001 0.000000e+000 1.000000e+001
      vertex   3.110764e+001 -2.742590e+001 0.000000e+000
      vertex   1.656786e+001 0.000000e+000 0.000000e+000
    endloop
  endfacet
  facet normal -1.000000e+000 -0.000000e+000 -0.000000e+000
    outer loop
      vertex   3.110764e+001 0.000000e+000 1.000000e+001
      vertex   3.110764e+001 0.000000e+000 0.000000e+000
      vertex   3.110764e+001 -2.742590e+001 1.000000e+001
    endloop
  endfacet
  facet normal -1.000000e+000 -0.000000e+000 -0.000000e+000
    outer loop
      vertex   3.110764e+001 -2.742590e+001 1.000000e+001
      vertex   3.110764e+001 0.000000e+000 0.000000e+000
      vertex   3.110764e+001 -2.742590e+001 0.000000e+000
    endloop
  endfacet
  facet normal 0.000000e+000 1.000000e+000 0.000000e+000
    outer loop
      vertex   4.087363e+001 0.000000e+000 1.000000e+001
      vertex   4.087363e+001 0.000000e+000 0.000000e+000
      vertex   3.110764e+001 0.000000e+000 1.000000e+001
    endloop
  endfacet
  facet normal 0.000000e+000 1.000000e+000 0.000000e+000
    outer loop
      vertex   3.110764e+001 0.000000e+000 1.000000e+001
      vertex   4.087363e+001 0.000000e+000 0.000000e+000
      vertex   3.110764e+001 0.000000e+000 0.000000e+000
    endloop
  endfacet
  facet normal 1.000000e+000 -0.000000e+000 0.000000e+000
    outer loop
      vertex   4.087363e+001 -4.000000e+001 1.000000e+001
      vertex   4.087363e+001 -4.000000e+001 0.000000e+000
      vertex   4.087363e+001 0.000000e+000 1.000000e+001
    endloop
  endfacet
  facet normal 1.000000e+000 -0.000000e+000 0.000000e+000
    outer loop
      vertex   4.087363e+001 0.000000e+000 1.000000e+001
      vertex   4.087363e+001 -4.000000e+001 0.000000e+000
      vertex   4.087363e+001 0.000000e+000 0.000000e+000
    endloop
  endfacet
  facet normal 0.000000e+000 -1.000000e+000 0.000000e+000
    outer loop
      vertex   2.936037e+001 -4.000000e+001 1.000000e+001
      vertex   2.936037e+001 -4.000000e+001 0.000000e+000
      vertex   4.087363e+001 -4.000000e+001 1.000000e+001
    endloop
  endfacet
  facet normal 0.000000e+000 -1.000000e+000 -0.000000e+000
    outer loop
      vertex   4.087363e+001 -4.000000e+001 1.000000e+001
      vertex   2.936037e+001 -4.000000e+001 0.000000e+000
      vertex   4.087363e+001 -4.000000e+001 0.000000e+000
    endloop
  endfacet
  facet normal -8.835188e-001 -4.683956e-001 -0.000000e+000
    outer loop
      vertex   1.482059e+001 -1.257410e+001 1.000000e+001
      vertex   1.482059e+001 -1.257410e+001 0.000000e+000
      vertex   2.936037e+001 -4.000000e+001 1.000000e+001
    endloop
  endfacet
  facet normal -8.835188e-001 -4.683956e-001 0.000000e+000
    outer loop
      vertex   2.936037e+001 -4.000000e+001 1.000000e+001
      vertex   1.482059e+001 -1.257410e+001 0.000000e+000
      vertex   2.936037e+001 -4.000000e+001 0.000000e+000
    endloop
  endfacet
  facet normal 1.000000e+000 -0.000000e+000 0.000000e+000
    outer loop
      vertex   1.482059e+001 -4.000000e+001 1.000000e+001
      vertex   1.482059e+001 -4.000000e+001 0.000000e+000
      vertex   1.482059e+001 -1.257410e+001 1.000000e+001
    endloop
  endfacet
  facet normal 1.000000e+000 -0.000000e+000 0.000000e+000
    outer loop
      vertex   1.482059e+001 -1.257410e+001 1.000000e+001
      vertex   1.482059e+001 -4.000000e+001 0.000000e+000
      vertex   1.482059e+001 -1.257410e+001 0.000000e+000
    endloop
  endfacet
  facet normal 0.000000e+000 -1.000000e+000 0.000000e+000
    outer loop
      vertex   5.023401e+000 -4.000000e+001 1.000000e+001
      vertex   5.023401e+000 -4.000000e+001 0.000000e+000
      vertex   1.482059e+001 -4.000000e+001 1.000000e+001
    endloop
  endfacet
  facet normal 0.000000e+000 -1.000000e+000 -0.000000e+000
    outer loop
      vertex   1.482059e+001 -4.000000e+001 1.000000e+001
      vertex   5.023401e+000 -4.000000e+001 0.000000e+000
      vertex   1.482059e+001 -4.000000e+001 0.000000e+000
    endloop
  endfacet
  facet normal -1.000000e+000 -0.000000e+000 -0.000000e+000
    outer loop
      vertex   5.023401e+000 0.000000e+000 1.000000e+001
      vertex   5.023401e+000 0.000000e+000 0.000000e+000
      vertex   5.023401e+000 -4.000000e+001 1.000000e+001
    endloop
  endfacet
  facet normal -1.000000e+000 -0.000000e+000 -0.000000e+000
    outer loop
      vertex   5.023401e+000 -4.000000e+001 1.000000e+001
      vertex   5.023401e+000 0.000000e+000 0.000000e+000
      vertex   5.023401e+000 -4.000000e+001 0.000000e+000
    endloop
  endfacet
  facet normal 0.000000e+000 1.000000e+000 0.000000e+000
    outer loop
      vertex   1.656786e+001 0.000000e+000 1.000000e+001
      vertex   1.656786e+001 0.000000e+000 0.000000e+000
      vertex   5.023401e+000 0.000000e+000 1.000000e+001
    endloop
  endfacet
  facet normal 0.000000e+000 1.000000e+000 0.000000e+000
    outer loop
      vertex   5.023401e+000 0.000000e+000 1.000000e+001
      vertex   1.656786e+001 0.000000e+000 0.000000e+000
      vertex   5.023401e+000 0.000000e+000 0.000000e+000
    endloop
  endfacet
  facet normal 0.000000e+000 0.000000e+000 1.000000e+000
    outer loop
      vertex   1.656786e+001 0.000000e+000 1.000000e+001
      vertex   1.482059e+001 -1.257410e+001 1.000000e+001
      vertex   3.110764e+001 -2.742590e+001 1.000000e+001
    endloop
  endfacet
  facet normal 0.000000e+000 0.000000e+000 1.000000e+000
    outer loop
      vertex   1.656786e+001 0.000000e+000 1.000000e+001
      vertex   5.023401e+000 0.000000e+000 1.000000e+001
      vertex   1.482059e+001 -1.257410e+001 1.000000e+001
    endloop
  endfacet
  facet normal 0.000000e+000 0.000000e+000 1.000000e+000
    outer loop
      vertex   1.482059e+001 -1.257410e+001 1.000000e+001
      vertex   5.023401e+000 0.000000e+000 1.000000e+001
      vertex   5.023401e+000 -4.000000e+001 1.000000e+001
    endloop
  endfacet
  facet normal 0.000000e+000 -0.000000e+000 1.000000e+000
    outer loop
      vertex   1.482059e+001 -4.000000e+001 1.000000e+001
      vertex   1.482059e+001 -1.257410e+001 1.000000e+001
      vertex   5.023401e+000 -4.000000e+001 1.000000e+001
    endloop
  endfacet
  facet normal -0.000000e+000 0.000000e+000 1.000000e+000
    outer loop
      vertex   1.482059e+001 -1.257410e+001 1.000000e+001
      vertex   2.936037e+001 -4.000000e+001 1.000000e+001
      vertex   3.110764e+001 -2.742590e+001 1.000000e+001
    endloop
  endfacet
  facet normal -0.000000e+000 0.000000e+000 1.000000e+000
    outer loop
      vertex   3.110764e+001 -2.742590e+001 1.000000e+001
      vertex   2.936037e+001 -4.000000e+001 1.000000e+001
      vertex   4.087363e+001 -4.000000e+001 1.000000e+001
    endloop
  endfacet
  facet normal 0.000000e+000 0.000000e+000 1.000000e+000
    outer loop
      vertex   4.087363e+001 0.000000e+000 1.000000e+001
      vertex   3.110764e+001 -2.742590e+001 1.000000e+001
      vertex   4.087363e+001 -4.000000e+001 1.000000e+001
    endloop
  endfacet
  facet normal 0.000000e+000 0.000000e+000 1.000000e+000
    outer loop
      vertex   4.087363e+001 0.000000e+000 1.000000e+001
      vertex   3.110764e+001 0.000000e+000 1.000000e+001
      vertex   3.110764e+001 -2.742590e+001 1.000000e+001
    endloop
  endfacet
  facet normal 0.000000e+000 0.000000e+000 -1.000000e+000
    outer loop
      vertex   5.023401e+000 -4.000000e+001 0.000000e+000
      vertex   5.023401e+000 0.000000e+000 0.000000e+000
      vertex   1.482059e+001 -1.257410e+001 0.000000e+000
    endloop
  endfacet
  facet normal 0.000000e+000 0.000000e+000 -1.000000e+000
    outer loop
      vertex   1.482059e+001 -4.000000e+001 0.000000e+000
      vertex   5.023401e+000 -4.000000e+001 0.000000e+000
      vertex   1.482059e+001 -1.257410e+001 0.000000e+000
    endloop
  endfacet
  facet normal 0.000000e+000 -0.000000e+000 -1.000000e+000
    outer loop
      vertex   5.023401e+000 0.000000e+000 0.000000e+000
      vertex   1.656786e+001 0.000000e+000 0.000000e+000
      vertex   1.482059e+001 -1.257410e+001 0.000000e+000
    endloop
  endfacet
  facet normal 0.000000e+000 0.000000e+000 -1.000000e+000
    outer loop
      vertex   1.482059e+001 -1.257410e+001 0.000000e+000
      vertex   1.656786e+001 0.000000e+000 0.000000e+000
      vertex   3.110764e+001 -2.742590e+001 0.000000e+000
    endloop
  endfacet
  facet normal 0.000000e+000 0.000000e+000 -1.000000e+000
    outer loop
      vertex   2.936037e+001 -4.000000e+001 0.000000e+000
      vertex   3.110764e+001 -2.742590e+001 0.000000e+000
      vertex   4.087363e+001 -4.000000e+001 0.000000e+000
    endloop
  endfacet
  facet normal 0.000000e+000 0.000000e+000 -1.000000e+000
    outer loop
      vertex   2.936037e+001 -4.000000e+001 0.000000e+000
      vertex   1.482059e+001 -1.257410e+001 0.000000e+000
      vertex   3.110764e+001 -2.742590e+001 0.000000e+000
    endloop
  endfacet
  facet normal 0.000000e+000 -0.000000e+000 -1.000000e+000
    outer loop
      vertex   3.110764e+001 0.000000e+000 0.000000e+000
      vertex   4.087363e+001 0.000000e+000 0.000000e+000
      vertex   3.110764e+001 -2.742590e+001 0.000000e+000
    endloop
  endfacet
  facet normal 0.000000e+000 0.000000e+000 -1.000000e+000
    outer loop
      vertex   3.110764e+001 -2.742590e+001 0.000000e+000
      vertex   4.087363e+001 0.000000e+000 0.000000e+000
      vertex   4.087363e+001 -4.000000e+001 0.000000e+000
    endloop
  endfacet
endsolid