solid ascii
  facet normal 1.000000e+000 -0.000000e+000 0.000000e+000
    outer loop
      vertex   1.535101e+001 -3.219969e+001 1.000000e+001
      vertex   1.535101e+001 -3.219969e+001 0.000000e+000
      vertex   1.535101e+001 0.000000e+000 1.000000e+001
    endloop
  endfacet
  facet normal 1.000000e+000 -0.000000e+000 0.000000e+000
    outer loop
      vertex   1.535101e+001 0.000000e+000 1.000000e+001
      vertex   1.535101e+001 -3.219969e+001 0.000000e+000
      vertex   1.535101e+001 0.000000e+000 0.000000e+000
    endloop
  endfacet
  facet normal 0.000000e+000 1.000000e+000 0.000000e+000
    outer loop
      vertex   3.344774e+001 -3.219969e+001 1.000000e+001
      vertex   3.344774e+001 -3.219969e+001 0.000000e+000
      vertex   1.535101e+001 -3.219969e+001 1.000000e+001
    endloop
  endfacet
  facet normal 0.000000e+000 1.000000e+000 0.000000e+000
    outer loop
      vertex   1.535101e+001 -3.219969e+001 1.000000e+001
      vertex   3.344774e+001 -3.219969e+001 0.000000e+000
      vertex   1.535101e+001 -3.219969e+001 0.000000e+000
    endloop
  endfacet
  facet normal 1.000000e+000 -0.000000e+000 0.000000e+000
    outer loop
      vertex   3.344774e+001 -4.000000e+001 1.000000e+001
      vertex   3.344774e+001 -4.000000e+001 0.000000e+000
      vertex   3.344774e+001 -3.219969e+001 1.000000e+001
    endloop
  endfacet
  facet normal 1.000000e+000 -0.000000e+000 0.000000e+000
    outer loop
      vertex   3.344774e+001 -3.219969e+001 1.000000e+001
      vertex   3.344774e+001 -4.000000e+001 0.000000e+000
      vertex   3.344774e+001 -3.219969e+001 0.000000e+000
    endloop
  endfacet
  facet normal 0.000000e+000 -1.000000e+000 0.000000e+000
    outer loop
      vertex   5.023401e+000 -4.000000e+001 1.000000e+001
      vertex   5.023401e+000 -4.000000e+001 0.000000e+000
      vertex   3.344774e+001 -4.000000e+001 1.000000e+001
    endloop
  endfacet
  facet normal 0.000000e+000 -1.000000e+000 -0.000000e+000
    outer loop
      vertex   3.344774e+001 -4.000000e+001 1.000000e+001
      vertex   5.023401e+000 -4.000000e+001 0.000000e+000
      vertex   3.344774e+001 -4.000000e+001 0.000000e+000
    endloop
  endfacet
  facet normal -1.000000e+000 2.220446e-017 0.000000e+000
    outer loop
      vertex   5.023401e+000 0.000000e+000 1.000000e+001
      vertex   5.023401e+000 0.000000e+000 0.000000e+000
      vertex   5.023401e+000 -4.000000e+001 1.000000e+001
    endloop
  endfacet
  facet normal -1.000000e+000 2.220446e-017 0.000000e+000
    outer loop
      vertex   5.023401e+000 -4.000000e+001 1.000000e+001
      vertex   5.023401e+000 0.000000e+000 0.000000e+000
      vertex   5.023401e+000 -4.000000e+001 0.000000e+000
    endloop
  endfacet
  facet normal 0.000000e+000 1.000000e+000 0.000000e+000
    outer loop
      vertex   1.535101e+001 0.000000e+000 1.000000e+001
      vertex   1.535101e+001 0.000000e+000 0.000000e+000
      vertex   5.023401e+000 0.000000e+000 1.000000e+001
    endloop
  endfacet
  facet normal 0.000000e+000 1.000000e+000 0.000000e+000
    outer loop
      vertex   5.023401e+000 0.000000e+000 1.000000e+001
      vertex   1.535101e+001 0.000000e+000 0.000000e+000
      vertex   5.023401e+000 0.000000e+000 0.000000e+000
    endloop
  endfacet
  facet normal 0.000000e+000 0.000000e+000 1.000000e+000
    outer loop
      vertex   1.535101e+001 0.000000e+000 1.000000e+001
      vertex   5.023401e+000 0.000000e+000 1.000000e+001
      vertex   1.535101e+001 -3.219969e+001 1.000000e+001
    endloop
  endfacet
  facet normal 0.000000e+000 0.000000e+000 1.000000e+000
    outer loop
      vertex   1.535101e+001 -3.219969e+001 1.000000e+001
      vertex   5.023401e+000 0.000000e+000 1.000000e+001
      vertex   5.023401e+000 -4.000000e+001 1.000000e+001
    endloop
  endfacet
  facet normal 0.000000e+000 0.000000e+000 1.000000e+000
    outer loop
      vertex   3.344774e+001 -4.000000e+001 1.000000e+001
      vertex   1.535101e+001 -3.219969e+001 1.000000e+001
      vertex   5.023401e+000 -4.000000e+001 1.000000e+001
    endloop
  endfacet
  facet normal 0.000000e+000 -0.000000e+000 1.000000e+000
    outer loop
      vertex   3.344774e+001 -4.000000e+001 1.000000e+001
      vertex   3.344774e+001 -3.219969e+001 1.000000e+001
      vertex   1.535101e+001 -3.219969e+001 1.000000e+001
    endloop
  endfacet
  facet normal -0.000000e+000 -0.000000e+000 -1.000000e+000
    outer loop
      vertex   1.535101e+001 0.000000e+000 0.000000e+000
      vertex   1.535101e+001 -3.219969e+001 0.000000e+000
      vertex   5.023401e+000 0.000000e+000 0.000000e+000
    endloop
  endfacet
  facet normal 0.000000e+000 -0.000000e+000 -1.000000e+000
    outer loop
      vertex   5.023401e+000 0.000000e+000 0.000000e+000
      vertex   1.535101e+001 -3.219969e+001 0.000000e+000
      vertex   5.023401e+000 -4.000000e+001 0.000000e+000
    endloop
  endfacet
  facet normal 0.000000e+000 0.000000e+000 -1.000000e+000
    outer loop
      vertex   5.023401e+000 -4.000000e+001 0.000000e+000
      vertex   1.535101e+001 -3.219969e+001 0.000000e+000
      vertex   3.344774e+001 -4.000000e+001 0.000000e+000
    endloop
  endfacet
  facet normal 0.000000e+000 0.000000e+000 -1.000000e+000
    outer loop
      vertex   3.344774e+001 -4.000000e+001 0.000000e+000
      vertex   1.535101e+001 -3.219969e+001 0.000000e+000
      vertex   3.344774e+001 -3.219969e+001 0.000000e+000
    endloop
  endfacet
endsolid