solid ascii
  facet normal 9.452942e-001 -3.262192e-001 0.000000e+000
    outer loop
      vertex   1.575663e+001 -2.527301e+001 1.000000e+001
      vertex   1.575663e+001 -2.527301e+001 0.000000e+000
      vertex   2.124805e+001 -9.360374e+000 1.000000e+001
    endloop
  endfacet
  facet normal 9.452942e-001 -3.262192e-001 0.000000e+000
    outer loop
      vertex   2.124805e+001 -9.360374e+000 1.000000e+001
      vertex   1.575663e+001 -2.527301e+001 0.000000e+000
      vertex   2.124805e+001 -9.360374e+000 0.000000e+000
    endloop
  endfacet
  facet normal -9.452942e-001 -3.262192e-001 -0.000000e+000
    outer loop
      vertex   2.124805e+001 -9.360374e+000 1.000000e+001
      vertex   2.124805e+001 -9.360374e+000 0.000000e+000
      vertex   2.673947e+001 -2.527301e+001 1.000000e+001
    endloop
  endfacet
  facet normal -9.452942e-001 -3.262192e-001 0.000000e+000
    outer loop
      vertex   2.673947e+001 -2.527301e+001 1.000000e+001
      vertex   2.124805e+001 -9.360374e+000 0.000000e+000
      vertex   2.673947e+001 -2.527301e+001 0.000000e+000
    endloop
  endfacet
  facet normal 0.000000e+000 1.000000e+000 0.000000e+000
    outer loop
      vertex   2.673947e+001 -2.527301e+001 1.000000e+001
      vertex   2.673947e+001 -2.527301e+001 0.000000e+000
      vertex   1.575663e+001 -2.527301e+001 1.000000e+001
    endloop
  endfacet
  facet normal 0.000000e+000 1.000000e+000 0.000000e+000
    outer loop
      vertex   1.575663e+001 -2.527301e+001 1.000000e+001
      vertex   2.673947e+001 -2.527301e+001 0.000000e+000
      vertex   1.575663e+001 -2.527301e+001 0.000000e+000
    endloop
  endfacet
  facet normal 9.437325e-001 -3.307097e-001 0.000000e+000
    outer loop
      vertex   1.063963e+001 -4.000000e+001 1.000000e+001
      vertex   1.063963e+001 -4.000000e+001 0.000000e+000
      vertex   1.319813e+001 -3.269891e+001 1.000000e+001
    endloop
  endfacet
  facet normal 9.437325e-001 -3.307097e-001 0.000000e+000
    outer loop
      vertex   1.319813e+001 -3.269891e+001 1.000000e+001
      vertex   1.063963e+001 -4.000000e+001 0.000000e+000
      vertex   1.319813e+001 -3.269891e+001 0.000000e+000
    endloop
  endfacet
  facet normal 0.000000e+000 -1.000000e+000 0.000000e+000
    outer loop
      vertex   2.808112e-001 -4.000000e+001 1.000000e+001
      vertex   2.808112e-001 -4.000000e+001 0.000000e+000
      vertex   1.063963e+001 -4.000000e+001 1.000000e+001
    endloop
  endfacet
  facet normal 0.000000e+000 -1.000000e+000 -0.000000e+000
    outer loop
      vertex   1.063963e+001 -4.000000e+001 1.000000e+001
      vertex   2.808112e-001 -4.000000e+001 0.000000e+000
      vertex   1.063963e+001 -4.000000e+001 0.000000e+000
    endloop
  endfacet
  facet normal -9.377046e-001 3.474335e-001 0.000000e+000
    outer loop
      vertex   1.510140e+001 0.000000e+000 1.000000e+001
      vertex   1.510140e+001 0.000000e+000 0.000000e+000
      vertex   2.808112e-001 -4.000000e+001 1.000000e+001
    endloop
  endfacet
  facet normal -9.377046e-001 3.474335e-001 0.000000e+000
    outer loop
      vertex   2.808112e-001 -4.000000e+001 1.000000e+001
      vertex   1.510140e+001 0.000000e+000 0.000000e+000
      vertex   2.808112e-001 -4.000000e+001 0.000000e+000
    endloop
  endfacet
  facet normal 0.000000e+000 1.000000e+000 0.000000e+000
    outer loop
      vertex   2.739470e+001 0.000000e+000 1.000000e+001
      vertex   2.739470e+001 0.000000e+000 0.000000e+000
      vertex   1.510140e+001 0.000000e+000 1.000000e+001
    endloop
  endfacet
  facet normal 0.000000e+000 1.000000e+000 0.000000e+000
    outer loop
      vertex   1.510140e+001 0.000000e+000 1.000000e+001
      vertex   2.739470e+001 0.000000e+000 0.000000e+000
      vertex   1.510140e+001 0.000000e+000 0.000000e+000
    endloop
  endfacet
  facet normal 9.377046e-001 3.474335e-001 0.000000e+000
    outer loop
      vertex   4.221529e+001 -4.000000e+001 1.000000e+001
      vertex   4.221529e+001 -4.000000e+001 0.000000e+000
      vertex   2.739470e+001 0.000000e+000 1.000000e+001
    endloop
  endfacet
  facet normal 9.377046e-001 3.474335e-001 0.000000e+000
    outer loop
      vertex   2.739470e+001 0.000000e+000 1.000000e+001
      vertex   4.221529e+001 -4.000000e+001 0.000000e+000
      vertex   2.739470e+001 0.000000e+000 0.000000e+000
    endloop
  endfacet
  facet normal 0.000000e+000 -1.000000e+000 0.000000e+000
    outer loop
      vertex   3.185647e+001 -4.000000e+001 1.000000e+001
      vertex   3.185647e+001 -4.000000e+001 0.000000e+000
      vertex   4.221529e+001 -4.000000e+001 1.000000e+001
    endloop
  endfacet
  facet normal 0.000000e+000 -1.000000e+000 -0.000000e+000
    outer loop
      vertex   4.221529e+001 -4.000000e+001 1.000000e+001
      vertex   3.185647e+001 -4.000000e+001 0.000000e+000
      vertex   4.221529e+001 -4.000000e+001 0.000000e+000
    endloop
  endfacet
  facet normal -9.449861e-001 -3.271106e-001 -0.000000e+000
    outer loop
      vertex   2.932917e+001 -3.269891e+001 1.000000e+001
      vertex   2.932917e+001 -3.269891e+001 0.000000e+000
      vertex   3.185647e+001 -4.000000e+001 1.000000e+001
    endloop
  endfacet
  facet normal -9.449861e-001 -3.271106e-001 0.000000e+000
    outer loop
      vertex   3.185647e+001 -4.000000e+001 1.000000e+001
      vertex   2.932917e+001 -3.269891e+001 0.000000e+000
      vertex   3.185647e+001 -4.000000e+001 0.000000e+000
    endloop
  endfacet
  facet normal 0.000000e+000 -1.000000e+000 0.000000e+000
    outer loop
      vertex   1.319813e+001 -3.269891e+001 1.000000e+001
      vertex   1.319813e+001 -3.269891e+001 0.000000e+000
      vertex   2.932917e+001 -3.269891e+001 1.000000e+001
    endloop
  endfacet
  facet normal 0.000000e+000 -1.000000e+000 -0.000000e+000
    outer loop
      vertex   2.932917e+001 -3.269891e+001 1.000000e+001
      vertex   1.319813e+001 -3.269891e+001 0.000000e+000
      vertex   2.932917e+001 -3.269891e+001 0.000000e+000
    endloop
  endfacet
  facet normal 0.000000e+000 0.000000e+000 1.000000e+000
    outer loop
      vertex   2.124805e+001 -9.360374e+000 1.000000e+001
      vertex   1.510140e+001 0.000000e+000 1.000000e+001
      vertex   1.575663e+001 -2.527301e+001 1.000000e+001
    endloop
  endfacet
  facet normal 0.000000e+000 -0.000000e+000 1.000000e+000
    outer loop
      vertex   2.124805e+001 -9.360374e+000 1.000000e+001
      vertex   2.739470e+001 0.000000e+000 1.000000e+001
      vertex   1.510140e+001 0.000000e+000 1.000000e+001
    endloop
  endfacet
  facet normal -0.000000e+000 0.000000e+000 1.000000e+000
    outer loop
      vertex   2.124805e+001 -9.360374e+000 1.000000e+001
      vertex   2.673947e+001 -2.527301e+001 1.000000e+001
      vertex   2.739470e+001 0.000000e+000 1.000000e+001
    endloop
  endfacet
  facet normal 0.000000e+000 0.000000e+000 1.000000e+000
    outer loop
      vertex   2.739470e+001 0.000000e+000 1.000000e+001
      vertex   2.673947e+001 -2.527301e+001 1.000000e+001
      vertex   4.221529e+001 -4.000000e+001 1.000000e+001
    endloop
  endfacet
  facet normal 0.000000e+000 0.000000e+000 1.000000e+000
    outer loop
      vertex   4.221529e+001 -4.000000e+001 1.000000e+001
      vertex   2.673947e+001 -2.527301e+001 1.000000e+001
      vertex   2.932917e+001 -3.269891e+001 1.000000e+001
    endloop
  endfacet
  facet normal 0.000000e+000 -0.000000e+000 1.000000e+000
    outer loop
      vertex   3.185647e+001 -4.000000e+001 1.000000e+001
      vertex   4.221529e+001 -4.000000e+001 1.000000e+001
      vertex   2.932917e+001 -3.269891e+001 1.000000e+001
    endloop
  endfacet
  facet normal 0.000000e+000 0.000000e+000 1.000000e+000
    outer loop
      vertex   2.932917e+001 -3.269891e+001 1.000000e+001
      vertex   2.673947e+001 -2.527301e+001 1.000000e+001
      vertex   1.319813e+001 -3.269891e+001 1.000000e+001
    endloop
  endfacet
  facet normal 0.000000e+000 -0.000000e+000 1.000000e+000
    outer loop
      vertex   1.319813e+001 -3.269891e+001 1.000000e+001
      vertex   2.673947e+001 -2.527301e+001 1.000000e+001
      vertex   1.575663e+001 -2.527301e+001 1.000000e+001
    endloop
  endfacet
  facet normal 0.000000e+000 -0.000000e+000 1.000000e+000
    outer loop
      vertex   2.808112e-001 -4.000000e+001 1.000000e+001
      vertex   1.575663e+001 -2.527301e+001 1.000000e+001
      vertex   1.510140e+001 0.000000e+000 1.000000e+001
    endloop
  endfacet
  facet normal 0.000000e+000 0.000000e+000 1.000000e+000
    outer loop
      vertex   2.808112e-001 -4.000000e+001 1.000000e+001
      vertex   1.319813e+001 -3.269891e+001 1.000000e+001
      vertex   1.575663e+001 -2.527301e+001 1.000000e+001
    endloop
  endfacet
  facet normal 0.000000e+000 0.000000e+000 1.000000e+000
    outer loop
      vertex   2.808112e-001 -4.000000e+001 1.000000e+001
      vertex   1.063963e+001 -4.000000e+001 1.000000e+001
      vertex   1.319813e+001 -3.269891e+001 1.000000e+001
    endloop
  endfacet
  facet normal 0.000000e+000 0.000000e+000 -1.000000e+000
    outer loop
      vertex   1.575663e+001 -2.527301e+001 0.000000e+000
      vertex   1.510140e+001 0.000000e+000 0.000000e+000
      vertex   2.124805e+001 -9.360374e+000 0.000000e+000
    endloop
  endfacet
  facet normal -0.000000e+000 0.000000e+000 -1.000000e+000
    outer loop
      vertex   1.575663e+001 -2.527301e+001 0.000000e+000
      vertex   2.808112e-001 -4.000000e+001 0.000000e+000
      vertex   1.510140e+001 0.000000e+000 0.000000e+000
    endloop
  endfacet
  facet normal 0.000000e+000 0.000000e+000 -1.000000e+000
    outer loop
      vertex   1.575663e+001 -2.527301e+001 0.000000e+000
      vertex   1.319813e+001 -3.269891e+001 0.000000e+000
      vertex   2.808112e-001 -4.000000e+001 0.000000e+000
    endloop
  endfacet
  facet normal 0.000000e+000 -0.000000e+000 -1.000000e+000
    outer loop
      vertex   1.575663e+001 -2.527301e+001 0.000000e+000
      vertex   2.673947e+001 -2.527301e+001 0.000000e+000
      vertex   1.319813e+001 -3.269891e+001 0.000000e+000
    endloop
  endfacet
  facet normal 0.000000e+000 0.000000e+000 -1.000000e+000
    outer loop
      vertex   1.319813e+001 -3.269891e+001 0.000000e+000
      vertex   2.673947e+001 -2.527301e+001 0.000000e+000
      vertex   2.932917e+001 -3.269891e+001 0.000000e+000
    endloop
  endfacet
  facet normal 0.000000e+000 0.000000e+000 -1.000000e+000
    outer loop
      vertex   2.932917e+001 -3.269891e+001 0.000000e+000
      vertex   2.673947e+001 -2.527301e+001 0.000000e+000
      vertex   4.221529e+001 -4.000000e+001 0.000000e+000
    endloop
  endfacet
  facet normal 0.000000e+000 0.000000e+000 -1.000000e+000
    outer loop
      vertex   3.185647e+001 -4.000000e+001 0.000000e+000
      vertex   2.932917e+001 -3.269891e+001 0.000000e+000
      vertex   4.221529e+001 -4.000000e+001 0.000000e+000
    endloop
  endfacet
  facet normal 0.000000e+000 0.000000e+000 -1.000000e+000
    outer loop
      vertex   4.221529e+001 -4.000000e+001 0.000000e+000
      vertex   2.673947e+001 -2.527301e+001 0.000000e+000
      vertex   2.739470e+001 0.000000e+000 0.000000e+000
    endloop
  endfacet
  facet normal -0.000000e+000 0.000000e+000 -1.000000e+000
    outer loop
      vertex   2.739470e+001 0.000000e+000 0.000000e+000
      vertex   2.673947e+001 -2.527301e+001 0.000000e+000
      vertex   2.124805e+001 -9.360374e+000 0.000000e+000
    endloop
  endfacet
  facet normal 0.000000e+000 -0.000000e+000 -1.000000e+000
    outer loop
      vertex   1.510140e+001 0.000000e+000 0.000000e+000
      vertex   2.739470e+001 0.000000e+000 0.000000e+000
      vertex   2.124805e+001 -9.360374e+000 0.000000e+000
    endloop
  endfacet
  facet normal -0.000000e+000 0.000000e+000 -1.000000e+000
    outer loop
      vertex   1.319813e+001 -3.269891e+001 0.000000e+000
      vertex   1.063963e+001 -4.000000e+001 0.000000e+000
      vertex   2.808112e-001 -4.000000e+001 0.000000e+000
    endloop
  endfacet
endsolid