solid ascii
  facet normal -1.000000e+000 -0.000000e+000 -0.000000e+000
    outer loop
      vertex   1.553822e+001 -7.020281e+000 1.000000e+001
      vertex   1.553822e+001 -7.020281e+000 0.000000e+000
      vertex   1.553822e+001 -3.288612e+001 1.000000e+001
    endloop
  endfacet
  facet normal -1.000000e+000 -0.000000e+000 -0.000000e+000
    outer loop
      vertex   1.553822e+001 -3.288612e+001 1.000000e+001
      vertex   1.553822e+001 -7.020281e+000 0.000000e+000
      vertex   1.553822e+001 -3.288612e+001 0.000000e+000
    endloop
  endfacet
  facet normal 2.023897e-001 -9.793051e-001 0.000000e+000
    outer loop
      vertex   6.177847e+000 -8.954758e+000 1.000000e+001
      vertex   6.177847e+000 -8.954758e+000 0.000000e+000
      vertex   1.553822e+001 -7.020281e+000 1.000000e+001
    endloop
  endfacet
  facet normal 2.023897e-001 -9.793051e-001 0.000000e+000
    outer loop
      vertex   1.553822e+001 -7.020281e+000 1.000000e+001
      vertex   6.177847e+000 -8.954758e+000 0.000000e+000
      vertex   1.553822e+001 -7.020281e+000 0.000000e+000
    endloop
  endfacet
  facet normal -1.000000e+000 -0.000000e+000 -0.000000e+000
    outer loop
      vertex   6.177847e+000 -1.934477e+000 1.000000e+001
      vertex   6.177847e+000 -1.934477e+000 0.000000e+000
      vertex   6.177847e+000 -8.954758e+000 1.000000e+001
    endloop
  endfacet
  facet normal -1.000000e+000 -0.000000e+000 -0.000000e+000
    outer loop
      vertex   6.177847e+000 -8.954758e+000 1.000000e+001
      vertex   6.177847e+000 -1.934477e+000 0.000000e+000
      vertex   6.177847e+000 -8.954758e+000 0.000000e+000
    endloop
  endfacet
  facet normal -2.036919e-001 9.790350e-001 0.000000e+000
    outer loop
      vertex   1.547582e+001 0.000000e+000 1.000000e+001
      vertex   1.547582e+001 0.000000e+000 0.000000e+000
      vertex   6.177847e+000 -1.934477e+000 1.000000e+001
    endloop
  endfacet
  facet normal -2.036919e-001 9.790350e-001 0.000000e+000
    outer loop
      vertex   6.177847e+000 -1.934477e+000 1.000000e+001
      vertex   1.547582e+001 0.000000e+000 0.000000e+000
      vertex   6.177847e+000 -1.934477e+000 0.000000e+000
    endloop
  endfacet
  facet normal 0.000000e+000 1.000000e+000 0.000000e+000
    outer loop
      vertex   2.530421e+001 0.000000e+000 1.000000e+001
      vertex   2.530421e+001 0.000000e+000 0.000000e+000
      vertex   1.547582e+001 0.000000e+000 1.000000e+001
    endloop
  endfacet
  facet normal 0.000000e+000 1.000000e+000 0.000000e+000
    outer loop
      vertex   1.547582e+001 0.000000e+000 1.000000e+001
      vertex   2.530421e+001 0.000000e+000 0.000000e+000
      vertex   1.547582e+001 0.000000e+000 0.000000e+000
    endloop
  endfacet
  facet normal 1.000000e+000 -0.000000e+000 0.000000e+000
    outer loop
      vertex   2.530421e+001 -3.288612e+001 1.000000e+001
      vertex   2.530421e+001 -3.288612e+001 0.000000e+000
      vertex   2.530421e+001 0.000000e+000 1.000000e+001
    endloop
  endfacet
  facet normal 1.000000e+000 -0.000000e+000 0.000000e+000
    outer loop
      vertex   2.530421e+001 0.000000e+000 1.000000e+001
      vertex   2.530421e+001 -3.288612e+001 0.000000e+000
      vertex   2.530421e+001 0.000000e+000 0.000000e+000
    endloop
  endfacet
  facet normal 0.000000e+000 1.000000e+000 0.000000e+000
    outer loop
      vertex   3.441498e+001 -3.288612e+001 1.000000e+001
      vertex   3.441498e+001 -3.288612e+001 0.000000e+000
      vertex   2.530421e+001 -3.288612e+001 1.000000e+001
    endloop
  endfacet
  facet normal 0.000000e+000 1.000000e+000 0.000000e+000
    outer loop
      vertex   2.530421e+001 -3.288612e+001 1.000000e+001
      vertex   3.441498e+001 -3.288612e+001 0.000000e+000
      vertex   2.530421e+001 -3.288612e+001 0.000000e+000
    endloop
  endfacet
  facet normal 1.000000e+000 -0.000000e+000 0.000000e+000
    outer loop
      vertex   3.441498e+001 -4.000000e+001 1.000000e+001
      vertex   3.441498e+001 -4.000000e+001 0.000000e+000
      vertex   3.441498e+001 -3.288612e+001 1.000000e+001
    endloop
  endfacet
  facet normal 1.000000e+000 -0.000000e+000 0.000000e+000
    outer loop
      vertex   3.441498e+001 -3.288612e+001 1.000000e+001
      vertex   3.441498e+001 -4.000000e+001 0.000000e+000
      vertex   3.441498e+001 -3.288612e+001 0.000000e+000
    endloop
  endfacet
  facet normal 0.000000e+000 -1.000000e+000 0.000000e+000
    outer loop
      vertex   6.427457e+000 -4.000000e+001 1.000000e+001
      vertex   6.427457e+000 -4.000000e+001 0.000000e+000
      vertex   3.441498e+001 -4.000000e+001 1.000000e+001
    endloop
  endfacet
  facet normal 0.000000e+000 -1.000000e+000 -0.000000e+000
    outer loop
      vertex   3.441498e+001 -4.000000e+001 1.000000e+001
      vertex   6.427457e+000 -4.000000e+001 0.000000e+000
      vertex   3.441498e+001 -4.000000e+001 0.000000e+000
    endloop
  endfacet
  facet normal -1.000000e+000 1.248514e-016 0.000000e+000
    outer loop
      vertex   6.427457e+000 -3.288612e+001 1.000000e+001
      vertex   6.427457e+000 -3.288612e+001 0.000000e+000
      vertex   6.427457e+000 -4.000000e+001 1.000000e+001
    endloop
  endfacet
  facet normal -1.000000e+000 1.248514e-016 0.000000e+000
    outer loop
      vertex   6.427457e+000 -4.000000e+001 1.000000e+001
      vertex   6.427457e+000 -3.288612e+001 0.000000e+000
      vertex   6.427457e+000 -4.000000e+001 0.000000e+000
    endloop
  endfacet
  facet normal 0.000000e+000 1.000000e+000 0.000000e+000
    outer loop
      vertex   1.553822e+001 -3.288612e+001 1.000000e+001
      vertex   1.553822e+001 -3.288612e+001 0.000000e+000
      vertex   6.427457e+000 -3.288612e+001 1.000000e+001
    endloop
  endfacet
  facet normal 0.000000e+000 1.000000e+000 0.000000e+000
    outer loop
      vertex   6.427457e+000 -3.288612e+001 1.000000e+001
      vertex   1.553822e+001 -3.288612e+001 0.000000e+000
      vertex   6.427457e+000 -3.288612e+001 0.000000e+000
    endloop
  endfacet
  facet normal 0.000000e+000 -0.000000e+000 1.000000e+000
    outer loop
      vertex   1.553822e+001 -3.288612e+001 1.000000e+001
      vertex   2.530421e+001 -3.288612e+001 1.000000e+001
      vertex   1.553822e+001 -7.020281e+000 1.000000e+001
    endloop
  endfacet
  facet normal -0.000000e+000 -0.000000e+000 1.000000e+000
    outer loop
      vertex   1.553822e+001 -3.288612e+001 1.000000e+001
      vertex   3.441498e+001 -4.000000e+001 1.000000e+001
      vertex   2.530421e+001 -3.288612e+001 1.000000e+001
    endloop
  endfacet
  facet normal -0.000000e+000 0.000000e+000 1.000000e+000
    outer loop
      vertex   1.553822e+001 -3.288612e+001 1.000000e+001
      vertex   6.427457e+000 -4.000000e+001 1.000000e+001
      vertex   3.441498e+001 -4.000000e+001 1.000000e+001
    endloop
  endfacet
  facet normal 0.000000e+000 0.000000e+000 1.000000e+000
    outer loop
      vertex   1.553822e+001 -3.288612e+001 1.000000e+001
      vertex   6.427457e+000 -3.288612e+001 1.000000e+001
      vertex   6.427457e+000 -4.000000e+001 1.000000e+001
    endloop
  endfacet
  facet normal 0.000000e+000 -0.000000e+000 1.000000e+000
    outer loop
      vertex   3.441498e+001 -4.000000e+001 1.000000e+001
      vertex   3.441498e+001 -3.288612e+001 1.000000e+001
      vertex   2.530421e+001 -3.288612e+001 1.000000e+001
    endloop
  endfacet
  facet normal 0.000000e+000 -0.000000e+000 1.000000e+000
    outer loop
      vertex   2.530421e+001 -3.288612e+001 1.000000e+001
      vertex   2.530421e+001 0.000000e+000 1.000000e+001
      vertex   1.553822e+001 -7.020281e+000 1.000000e+001
    endloop
  endfacet
  facet normal 0.000000e+000 -0.000000e+000 1.000000e+000
    outer loop
      vertex   1.553822e+001 -7.020281e+000 1.000000e+001
      vertex   2.530421e+001 0.000000e+000 1.000000e+001
      vertex   1.547582e+001 0.000000e+000 1.000000e+001
    endloop
  endfacet
  facet normal -0.000000e+000 -0.000000e+000 1.000000e+000
    outer loop
      vertex   6.177847e+000 -1.934477e+000 1.000000e+001
      vertex   1.553822e+001 -7.020281e+000 1.000000e+001
      vertex   1.547582e+001 0.000000e+000 1.000000e+001
    endloop
  endfacet
  facet normal -0.000000e+000 0.000000e+000 1.000000e+000
    outer loop
      vertex   6.177847e+000 -1.934477e+000 1.000000e+001
      vertex   6.177847e+000 -8.954758e+000 1.000000e+001
      vertex   1.553822e+001 -7.020281e+000 1.000000e+001
    endloop
  endfacet
  facet normal 0.000000e+000 -0.000000e+000 -1.000000e+000
    outer loop
      vertex   6.427457e+000 -3.288612e+001 0.000000e+000
      vertex   1.553822e+001 -3.288612e+001 0.000000e+000
      vertex   6.427457e+000 -4.000000e+001 0.000000e+000
    endloop
  endfacet
  facet normal 0.000000e+000 0.000000e+000 -1.000000e+000
    outer loop
      vertex   6.427457e+000 -4.000000e+001 0.000000e+000
      vertex   1.553822e+001 -3.288612e+001 0.000000e+000
      vertex   2.530421e+001 -3.288612e+001 0.000000e+000
    endloop
  endfacet
  facet normal 0.000000e+000 0.000000e+000 -1.000000e+000
    outer loop
      vertex   3.441498e+001 -4.000000e+001 0.000000e+000
      vertex   2.530421e+001 -3.288612e+001 0.000000e+000
      vertex   3.441498e+001 -3.288612e+001 0.000000e+000
    endloop
  endfacet
  facet normal 0.000000e+000 0.000000e+000 -1.000000e+000
    outer loop
      vertex   3.441498e+001 -4.000000e+001 0.000000e+000
      vertex   6.427457e+000 -4.000000e+001 0.000000e+000
      vertex   2.530421e+001 -3.288612e+001 0.000000e+000
    endloop
  endfacet
  facet normal 0.000000e+000 0.000000e+000 -1.000000e+000
    outer loop
      vertex   1.553822e+001 -3.288612e+001 0.000000e+000
      vertex   1.553822e+001 -7.020281e+000 0.000000e+000
      vertex   2.530421e+001 -3.288612e+001 0.000000e+000
    endloop
  endfacet
  facet normal 0.000000e+000 0.000000e+000 -1.000000e+000
    outer loop
      vertex   2.530421e+001 -3.288612e+001 0.000000e+000
      vertex   1.553822e+001 -7.020281e+000 0.000000e+000
      vertex   2.530421e+001 0.000000e+000 0.000000e+000
    endloop
  endfacet
  facet normal -0.000000e+000 0.000000e+000 -1.000000e+000
    outer loop
      vertex   2.530421e+001 0.000000e+000 0.000000e+000
      vertex   1.553822e+001 -7.020281e+000 0.000000e+000
      vertex   1.547582e+001 0.000000e+000 0.000000e+000
    endloop
  endfacet
  facet normal -0.000000e+000 -0.000000e+000 -1.000000e+000
    outer loop
      vertex   1.547582e+001 0.000000e+000 0.000000e+000
      vertex   1.553822e+001 -7.020281e+000 0.000000e+000
      vertex   6.177847e+000 -1.934477e+000 0.000000e+000
    endloop
  endfacet
  facet normal 0.000000e+000 -0.000000e+000 -1.000000e+000
    outer loop
      vertex   6.177847e+000 -1.934477e+000 0.000000e+000
      vertex   1.553822e+001 -7.020281e+000 0.000000e+000
      vertex   6.177847e+000 -8.954758e+000 0.000000e+000
    endloop
  endfacet
endsolid