%TF.GenerationSoftware,KiCad,Pcbnew,(6.0.2)*%
%TF.CreationDate,2022-03-12T14:55:35-05:00*%
%TF.ProjectId,letmein,6c65746d-6569-46e2-9e6b-696361645f70,rev?*%
%TF.SameCoordinates,Original*%
%TF.FileFunction,Copper,L1,Top*%
%TF.FilePolarity,Positive*%
%FSLAX46Y46*%
G04 Gerber Fmt 4.6, Leading zero omitted, Abs format (unit mm)*
G04 Created by KiCad (PCBNEW (6.0.2)) date 2022-03-12 14:55:35*
%MOMM*%
%LPD*%
G01*
G04 APERTURE LIST*
%TA.AperFunction,ComponentPad*%
%ADD10R,1.700000X1.700000*%
%TD*%
%TA.AperFunction,ComponentPad*%
%ADD11O,1.700000X1.700000*%
%TD*%
%TA.AperFunction,ComponentPad*%
%ADD12O,1.600000X1.600000*%
%TD*%
%TA.AperFunction,ComponentPad*%
%ADD13C,1.600000*%
%TD*%
%TA.AperFunction,ComponentPad*%
%ADD14C,2.000000*%
%TD*%
%TA.AperFunction,ComponentPad*%
%ADD15R,2.000000X2.000000*%
%TD*%
%TA.AperFunction,Conductor*%
%ADD16C,0.200000*%
%TD*%
%TA.AperFunction,Conductor*%
%ADD17C,0.250000*%
%TD*%
G04 APERTURE END LIST*
D10*
%TO.P,LED_STFU,4*%
%TO.N,N/C*%
X165100000Y-99060000D03*
D11*
%TO.P,LED_STFU,3*%
X165100000Y-96520000D03*
%TO.P,LED_STFU,2*%
X165100000Y-93980000D03*
D10*
%TO.P,LED_STFU,1*%
X165100000Y-91440000D03*
%TD*%
D11*
%TO.P,LED_header,10*%
%TO.N,N/C*%
X139700000Y-104140000D03*
%TO.P,LED_header,9*%
X137160000Y-104140000D03*
%TO.P,LED_header,8*%
X134620000Y-104140000D03*
%TO.P,LED_header,7*%
X132080000Y-104140000D03*
%TO.P,LED_header,6*%
X129540000Y-104140000D03*
D10*
%TO.P,LED_header,5*%
X127000000Y-104140000D03*
%TO.P,LED_header,4*%
X124460000Y-104140000D03*
%TO.P,LED_header,3*%
X121920000Y-104140000D03*
%TO.P,LED_header,2*%
X119380000Y-104140000D03*
%TO.P,LED_header,1*%
X116840000Y-104140000D03*
%TD*%
%TO.P,Button_ACK,1*%
%TO.N,N/C*%
X109220000Y-81280000D03*
D11*
%TO.P,Button_ACK,2*%
X109220000Y-83820000D03*
%TD*%
%TO.P,TinyS2,1*%
%TO.N,N/C*%
X144780000Y-78740000D03*
%TO.P,TinyS2,2*%
X144780000Y-81280000D03*
%TO.P,TinyS2,3*%
X144780000Y-83820000D03*
%TO.P,TinyS2,4*%
X144780000Y-86360000D03*
%TO.P,TinyS2,5*%
X144780000Y-88900000D03*
%TO.P,TinyS2,6*%
X144780000Y-91440000D03*
%TO.P,TinyS2,7*%
X144780000Y-93980000D03*
%TO.P,TinyS2,8*%
X144780000Y-96520000D03*
%TO.P,TinyS2,9*%
X144780000Y-99060000D03*
%TO.P,TinyS2,10*%
X144780000Y-101600000D03*
%TO.P,TinyS2,11*%
X144780000Y-104140000D03*
%TD*%
D12*
%TO.P,R_lvl_1,2*%
%TO.N,N/C*%
X139700000Y-93980000D03*
D13*
%TO.P,R_lvl_1,1*%
X129540000Y-93980000D03*
%TD*%
%TO.P,R_N_str,1*%
%TO.N,N/C*%
X129540000Y-83820000D03*
D12*
%TO.P,R_N_str,2*%
X139700000Y-83820000D03*
%TD*%
D14*
%TO.P,Buzzer,2*%
%TO.N,N/C*%
X116840000Y-96500000D03*
D15*
%TO.P,Buzzer,1*%
X116840000Y-88900000D03*
%TD*%
D12*
%TO.P,R_L_well,2*%
%TO.N,N/C*%
X139700000Y-99060000D03*
D13*
%TO.P,R_L_well,1*%
X129540000Y-99060000D03*
%TD*%
D12*
%TO.P,R_S_str,2*%
%TO.N,N/C*%
X139700000Y-78740000D03*
D13*
%TO.P,R_S_str,1*%
X129540000Y-78740000D03*
%TD*%
D10*
%TO.P, ,1*%
%TO.N,N/C*%
X160020000Y-76200000D03*
D11*
%TO.P, ,2*%
X160020000Y-78740000D03*
%TO.P, ,3*%
X160020000Y-81280000D03*
%TO.P, ,4*%
X160020000Y-83820000D03*
%TO.P, ,5*%
X160020000Y-86360000D03*
%TO.P, ,6*%
X160020000Y-88900000D03*
%TO.P, ,7*%
X160020000Y-91440000D03*
%TO.P, ,8*%
X160020000Y-93980000D03*
%TO.P, ,9*%
X160020000Y-96520000D03*
%TO.P, ,10*%
X160020000Y-99060000D03*
%TO.P, ,11*%
X160020000Y-101600000D03*
%TO.P, ,12*%
X160020000Y-104140000D03*
%TD*%
D12*
%TO.P,R_lvl_A,2*%
%TO.N,N/C*%
X139700000Y-88900000D03*
D13*
%TO.P,R_lvl_A,1*%
X129540000Y-88900000D03*
%TD*%
D16*
%TO.N,*%
X152400000Y-76200000D02*
X154940000Y-73660000D01*
X165100000Y-76200000D02*
X165100000Y-91440000D01*
X154940000Y-73660000D02*
X162560000Y-73660000D01*
X162560000Y-73660000D02*
X165100000Y-76200000D01*
X129540000Y-71120000D02*
X119380000Y-81280000D01*
X119380000Y-81280000D02*
X109220000Y-81280000D01*
X152400000Y-76200000D02*
X147320000Y-71120000D01*
X147320000Y-71120000D02*
X129540000Y-71120000D01*
D17*
X139700000Y-93980000D02*
X139700000Y-90805000D01*
X139700000Y-90805000D02*
X144145000Y-86360000D01*
X144145000Y-86360000D02*
X144780000Y-86360000D01*
D16*
X160020000Y-99060000D02*
X165100000Y-99060000D01*
X162560000Y-93980000D02*
X162560000Y-83820000D01*
X165100000Y-96520000D02*
X162560000Y-93980000D01*
X162560000Y-83820000D02*
X160020000Y-81280000D01*
D17*
X144780000Y-93980000D02*
X149860000Y-88900000D01*
X149860000Y-88900000D02*
X149860000Y-76200000D01*
X147320000Y-73660000D02*
X130810000Y-73660000D01*
X149860000Y-76200000D02*
X147320000Y-73660000D01*
X130810000Y-73660000D02*
X116840000Y-87630000D01*
X116840000Y-87630000D02*
X116840000Y-88900000D01*
X129540000Y-78740000D02*
X119380000Y-88900000D01*
X119380000Y-88900000D02*
X119380000Y-101600000D01*
X119380000Y-101600000D02*
X116840000Y-104140000D01*
X119380000Y-104140000D02*
X121920000Y-101600000D01*
X121920000Y-101600000D02*
X121920000Y-91440000D01*
X121920000Y-91440000D02*
X129540000Y-83820000D01*
X129540000Y-88900000D02*
X124460000Y-93980000D01*
X124460000Y-93980000D02*
X124460000Y-101600000D01*
X124460000Y-101600000D02*
X121920000Y-104140000D01*
X127000000Y-96520000D02*
X127000000Y-101600000D01*
X129540000Y-93980000D02*
X127000000Y-96520000D01*
X127000000Y-101600000D02*
X124460000Y-104140000D01*
X129540000Y-99060000D02*
X129540000Y-101600000D01*
X129540000Y-101600000D02*
X127000000Y-104140000D01*
X139700000Y-78740000D02*
X144780000Y-78740000D01*
X139700000Y-83820000D02*
X142240000Y-83820000D01*
X142240000Y-83820000D02*
X144780000Y-81280000D01*
X139700000Y-88900000D02*
X144780000Y-83820000D01*
X139700000Y-99060000D02*
X142240000Y-96520000D01*
D16*
X142240000Y-96520000D02*
X142240000Y-91440000D01*
X142240000Y-91440000D02*
X144780000Y-88900000D01*
D17*
X152400000Y-88900000D02*
X144780000Y-96520000D01*
X152400000Y-76200000D02*
X152400000Y-88900000D01*
%TD*%
M02*
