%TF.GenerationSoftware,KiCad,Pcbnew,(6.0.2)*%
%TF.CreationDate,2022-03-12T14:55:35-05:00*%
%TF.ProjectId,letmein,6c65746d-6569-46e2-9e6b-696361645f70,rev?*%
%TF.SameCoordinates,Original*%
%TF.FileFunction,Legend,Bot*%
%TF.FilePolarity,Positive*%
%FSLAX46Y46*%
G04 Gerber Fmt 4.6, Leading zero omitted, Abs format (unit mm)*
G04 Created by KiCad (PCBNEW (6.0.2)) date 2022-03-12 14:55:35*
%MOMM*%
%LPD*%
G01*
G04 APERTURE LIST*
%ADD10C,0.150000*%
%ADD11C,0.300000*%
%ADD12C,0.120000*%
G04 APERTURE END LIST*
D10*
X165314285Y-88113333D02*
X165028571Y-88875238D01*
X164742857Y-88113333D01*
X165028571Y-87637142D02*
X165028571Y-86875238D01*
X165171428Y-86065714D02*
X165171428Y-86399047D01*
X164647619Y-86399047D02*
X165647619Y-86399047D01*
X165647619Y-85922857D01*
X165314285Y-85113333D02*
X164647619Y-85113333D01*
X165314285Y-85541904D02*
X164790476Y-85541904D01*
X164695238Y-85494285D01*
X164647619Y-85399047D01*
X164647619Y-85256190D01*
X164695238Y-85160952D01*
X164742857Y-85113333D01*
X164695238Y-84208571D02*
X164647619Y-84303809D01*
X164647619Y-84494285D01*
X164695238Y-84589523D01*
X164742857Y-84637142D01*
X164838095Y-84684761D01*
X165123809Y-84684761D01*
X165219047Y-84637142D01*
X165266666Y-84589523D01*
X165314285Y-84494285D01*
X165314285Y-84303809D01*
X165266666Y-84208571D01*
X164647619Y-83780000D02*
X165647619Y-83780000D01*
X165028571Y-83684761D02*
X164647619Y-83399047D01*
X165314285Y-83399047D02*
X164933333Y-83780000D01*
X165314285Y-82303809D02*
X164647619Y-82065714D01*
X165314285Y-81827619D02*
X164647619Y-82065714D01*
X164409523Y-82160952D01*
X164361904Y-82208571D01*
X164314285Y-82303809D01*
X164647619Y-81303809D02*
X164695238Y-81399047D01*
X164742857Y-81446666D01*
X164838095Y-81494285D01*
X165123809Y-81494285D01*
X165219047Y-81446666D01*
X165266666Y-81399047D01*
X165314285Y-81303809D01*
X165314285Y-81160952D01*
X165266666Y-81065714D01*
X165219047Y-81018095D01*
X165123809Y-80970476D01*
X164838095Y-80970476D01*
X164742857Y-81018095D01*
X164695238Y-81065714D01*
X164647619Y-81160952D01*
X164647619Y-81303809D01*
X165314285Y-80113333D02*
X164647619Y-80113333D01*
X165314285Y-80541904D02*
X164790476Y-80541904D01*
X164695238Y-80494285D01*
X164647619Y-80399047D01*
X164647619Y-80256190D01*
X164695238Y-80160952D01*
X164742857Y-80113333D01*
X164647619Y-78875238D02*
X165647619Y-78875238D01*
X164647619Y-78303809D01*
X165647619Y-78303809D01*
X164647619Y-77684761D02*
X164695238Y-77780000D01*
X164742857Y-77827619D01*
X164838095Y-77875238D01*
X165123809Y-77875238D01*
X165219047Y-77827619D01*
X165266666Y-77780000D01*
X165314285Y-77684761D01*
X165314285Y-77541904D01*
X165266666Y-77446666D01*
X165219047Y-77399047D01*
X165123809Y-77351428D01*
X164838095Y-77351428D01*
X164742857Y-77399047D01*
X164695238Y-77446666D01*
X164647619Y-77541904D01*
X164647619Y-77684761D01*
X164647619Y-76494285D02*
X165171428Y-76494285D01*
X165266666Y-76541904D01*
X165314285Y-76637142D01*
X165314285Y-76827619D01*
X165266666Y-76922857D01*
X164695238Y-76494285D02*
X164647619Y-76589523D01*
X164647619Y-76827619D01*
X164695238Y-76922857D01*
X164790476Y-76970476D01*
X164885714Y-76970476D01*
X164980952Y-76922857D01*
X165028571Y-76827619D01*
X165028571Y-76589523D01*
X165076190Y-76494285D01*
X164647619Y-76018095D02*
X165647619Y-76018095D01*
X164647619Y-75589523D02*
X165171428Y-75589523D01*
X165266666Y-75637142D01*
X165314285Y-75732380D01*
X165314285Y-75875238D01*
X165266666Y-75970476D01*
X165219047Y-76018095D01*
X164742857Y-74351428D02*
X164695238Y-74303809D01*
X164647619Y-74351428D01*
X164695238Y-74399047D01*
X164742857Y-74351428D01*
X164647619Y-74351428D01*
X165266666Y-74351428D02*
X165219047Y-74303809D01*
X165171428Y-74351428D01*
X165219047Y-74399047D01*
X165266666Y-74351428D01*
X165171428Y-74351428D01*
X164266666Y-73970476D02*
X164314285Y-73922857D01*
X164457142Y-73827619D01*
X164552380Y-73780000D01*
X164695238Y-73732380D01*
X164933333Y-73684761D01*
X165123809Y-73684761D01*
X165361904Y-73732380D01*
X165504761Y-73780000D01*
X165600000Y-73827619D01*
X165742857Y-73922857D01*
X165790476Y-73970476D01*
X142390476Y-91225714D02*
X143152380Y-91511428D01*
X142390476Y-91797142D01*
X141914285Y-91511428D02*
X141152380Y-91511428D01*
X140247619Y-91892380D02*
X140247619Y-90892380D01*
X140247619Y-91844761D02*
X140342857Y-91892380D01*
X140533333Y-91892380D01*
X140628571Y-91844761D01*
X140676190Y-91797142D01*
X140723809Y-91701904D01*
X140723809Y-91416190D01*
X140676190Y-91320952D01*
X140628571Y-91273333D01*
X140533333Y-91225714D01*
X140342857Y-91225714D01*
X140247619Y-91273333D01*
X139771428Y-91892380D02*
X139771428Y-91225714D01*
X139771428Y-90892380D02*
X139819047Y-90940000D01*
X139771428Y-90987619D01*
X139723809Y-90940000D01*
X139771428Y-90892380D01*
X139771428Y-90987619D01*
X139295238Y-91225714D02*
X139295238Y-91892380D01*
X139295238Y-91320952D02*
X139247619Y-91273333D01*
X139152380Y-91225714D01*
X139009523Y-91225714D01*
X138914285Y-91273333D01*
X138866666Y-91368571D01*
X138866666Y-91892380D01*
X137961904Y-91225714D02*
X137961904Y-92035238D01*
X138009523Y-92130476D01*
X138057142Y-92178095D01*
X138152380Y-92225714D01*
X138295238Y-92225714D01*
X138390476Y-92178095D01*
X137961904Y-91844761D02*
X138057142Y-91892380D01*
X138247619Y-91892380D01*
X138342857Y-91844761D01*
X138390476Y-91797142D01*
X138438095Y-91701904D01*
X138438095Y-91416190D01*
X138390476Y-91320952D01*
X138342857Y-91273333D01*
X138247619Y-91225714D01*
X138057142Y-91225714D01*
X137961904Y-91273333D01*
X137057142Y-91225714D02*
X137057142Y-91892380D01*
X137485714Y-91225714D02*
X137485714Y-91749523D01*
X137438095Y-91844761D01*
X137342857Y-91892380D01*
X137200000Y-91892380D01*
X137104761Y-91844761D01*
X137057142Y-91797142D01*
X136628571Y-91844761D02*
X136533333Y-91892380D01*
X136342857Y-91892380D01*
X136247619Y-91844761D01*
X136200000Y-91749523D01*
X136200000Y-91701904D01*
X136247619Y-91606666D01*
X136342857Y-91559047D01*
X136485714Y-91559047D01*
X136580952Y-91511428D01*
X136628571Y-91416190D01*
X136628571Y-91368571D01*
X136580952Y-91273333D01*
X136485714Y-91225714D01*
X136342857Y-91225714D01*
X136247619Y-91273333D01*
D11*
X124352857Y-75971428D02*
X124424285Y-76185714D01*
X124495714Y-76257142D01*
X124638571Y-76328571D01*
X124852857Y-76328571D01*
X124995714Y-76257142D01*
X125067142Y-76185714D01*
X125138571Y-76042857D01*
X125138571Y-75471428D01*
X123638571Y-75471428D01*
X123638571Y-75971428D01*
X123710000Y-76114285D01*
X123781428Y-76185714D01*
X123924285Y-76257142D01*
X124067142Y-76257142D01*
X124210000Y-76185714D01*
X124281428Y-76114285D01*
X124352857Y-75971428D01*
X124352857Y-75471428D01*
X125138571Y-76971428D02*
X124138571Y-76971428D01*
X124424285Y-76971428D02*
X124281428Y-77042857D01*
X124210000Y-77114285D01*
X124138571Y-77257142D01*
X124138571Y-77400000D01*
X125138571Y-77900000D02*
X124138571Y-77900000D01*
X123638571Y-77900000D02*
X123710000Y-77828571D01*
X123781428Y-77900000D01*
X123710000Y-77971428D01*
X123638571Y-77900000D01*
X123781428Y-77900000D01*
X125138571Y-79257142D02*
X123638571Y-79257142D01*
X125067142Y-79257142D02*
X125138571Y-79114285D01*
X125138571Y-78828571D01*
X125067142Y-78685714D01*
X124995714Y-78614285D01*
X124852857Y-78542857D01*
X124424285Y-78542857D01*
X124281428Y-78614285D01*
X124210000Y-78685714D01*
X124138571Y-78828571D01*
X124138571Y-79114285D01*
X124210000Y-79257142D01*
X124138571Y-80614285D02*
X125352857Y-80614285D01*
X125495714Y-80542857D01*
X125567142Y-80471428D01*
X125638571Y-80328571D01*
X125638571Y-80114285D01*
X125567142Y-79971428D01*
X125067142Y-80614285D02*
X125138571Y-80471428D01*
X125138571Y-80185714D01*
X125067142Y-80042857D01*
X124995714Y-79971428D01*
X124852857Y-79900000D01*
X124424285Y-79900000D01*
X124281428Y-79971428D01*
X124210000Y-80042857D01*
X124138571Y-80185714D01*
X124138571Y-80471428D01*
X124210000Y-80614285D01*
X125067142Y-81900000D02*
X125138571Y-81757142D01*
X125138571Y-81471428D01*
X125067142Y-81328571D01*
X124924285Y-81257142D01*
X124352857Y-81257142D01*
X124210000Y-81328571D01*
X124138571Y-81471428D01*
X124138571Y-81757142D01*
X124210000Y-81900000D01*
X124352857Y-81971428D01*
X124495714Y-81971428D01*
X124638571Y-81257142D01*
X124138571Y-83542857D02*
X124138571Y-84114285D01*
X123638571Y-83757142D02*
X124924285Y-83757142D01*
X125067142Y-83828571D01*
X125138571Y-83971428D01*
X125138571Y-84114285D01*
X125138571Y-84828571D02*
X125067142Y-84685714D01*
X124995714Y-84614285D01*
X124852857Y-84542857D01*
X124424285Y-84542857D01*
X124281428Y-84614285D01*
X124210000Y-84685714D01*
X124138571Y-84828571D01*
X124138571Y-85042857D01*
X124210000Y-85185714D01*
X124281428Y-85257142D01*
X124424285Y-85328571D01*
X124852857Y-85328571D01*
X124995714Y-85257142D01*
X125067142Y-85185714D01*
X125138571Y-85042857D01*
X125138571Y-84828571D01*
X125067142Y-87042857D02*
X125138571Y-87185714D01*
X125138571Y-87471428D01*
X125067142Y-87614285D01*
X124924285Y-87685714D01*
X124852857Y-87685714D01*
X124710000Y-87614285D01*
X124638571Y-87471428D01*
X124638571Y-87257142D01*
X124567142Y-87114285D01*
X124424285Y-87042857D01*
X124352857Y-87042857D01*
X124210000Y-87114285D01*
X124138571Y-87257142D01*
X124138571Y-87471428D01*
X124210000Y-87614285D01*
X125138571Y-88328571D02*
X123638571Y-88328571D01*
X124567142Y-88471428D02*
X125138571Y-88900000D01*
X124138571Y-88900000D02*
X124710000Y-88328571D01*
X125138571Y-89542857D02*
X124138571Y-89542857D01*
X123638571Y-89542857D02*
X123710000Y-89471428D01*
X123781428Y-89542857D01*
X123710000Y-89614285D01*
X123638571Y-89542857D01*
X123781428Y-89542857D01*
X124138571Y-90257142D02*
X125638571Y-90257142D01*
X124210000Y-90257142D02*
X124138571Y-90400000D01*
X124138571Y-90685714D01*
X124210000Y-90828571D01*
X124281428Y-90900000D01*
X124424285Y-90971428D01*
X124852857Y-90971428D01*
X124995714Y-90900000D01*
X125067142Y-90828571D01*
X125138571Y-90685714D01*
X125138571Y-90400000D01*
X125067142Y-90257142D01*
X125138571Y-93614285D02*
X124424285Y-93114285D01*
X125138571Y-92757142D02*
X123638571Y-92757142D01*
X123638571Y-93328571D01*
X123710000Y-93471428D01*
X123781428Y-93542857D01*
X123924285Y-93614285D01*
X124138571Y-93614285D01*
X124281428Y-93542857D01*
X124352857Y-93471428D01*
X124424285Y-93328571D01*
X124424285Y-92757142D01*
X125067142Y-94828571D02*
X125138571Y-94685714D01*
X125138571Y-94400000D01*
X125067142Y-94257142D01*
X124924285Y-94185714D01*
X124352857Y-94185714D01*
X124210000Y-94257142D01*
X124138571Y-94400000D01*
X124138571Y-94685714D01*
X124210000Y-94828571D01*
X124352857Y-94900000D01*
X124495714Y-94900000D01*
X124638571Y-94185714D01*
X125067142Y-95471428D02*
X125138571Y-95614285D01*
X125138571Y-95900000D01*
X125067142Y-96042857D01*
X124924285Y-96114285D01*
X124852857Y-96114285D01*
X124710000Y-96042857D01*
X124638571Y-95900000D01*
X124638571Y-95685714D01*
X124567142Y-95542857D01*
X124424285Y-95471428D01*
X124352857Y-95471428D01*
X124210000Y-95542857D01*
X124138571Y-95685714D01*
X124138571Y-95900000D01*
X124210000Y-96042857D01*
X125138571Y-96757142D02*
X124138571Y-96757142D01*
X123638571Y-96757142D02*
X123710000Y-96685714D01*
X123781428Y-96757142D01*
X123710000Y-96828571D01*
X123638571Y-96757142D01*
X123781428Y-96757142D01*
X125067142Y-97400000D02*
X125138571Y-97542857D01*
X125138571Y-97828571D01*
X125067142Y-97971428D01*
X124924285Y-98042857D01*
X124852857Y-98042857D01*
X124710000Y-97971428D01*
X124638571Y-97828571D01*
X124638571Y-97614285D01*
X124567142Y-97471428D01*
X124424285Y-97400000D01*
X124352857Y-97400000D01*
X124210000Y-97471428D01*
X124138571Y-97614285D01*
X124138571Y-97828571D01*
X124210000Y-97971428D01*
X124138571Y-98471428D02*
X124138571Y-99042857D01*
X123638571Y-98685714D02*
X124924285Y-98685714D01*
X125067142Y-98757142D01*
X125138571Y-98900000D01*
X125138571Y-99042857D01*
X125138571Y-99757142D02*
X125067142Y-99614285D01*
X124995714Y-99542857D01*
X124852857Y-99471428D01*
X124424285Y-99471428D01*
X124281428Y-99542857D01*
X124210000Y-99614285D01*
X124138571Y-99757142D01*
X124138571Y-99971428D01*
X124210000Y-100114285D01*
X124281428Y-100185714D01*
X124424285Y-100257142D01*
X124852857Y-100257142D01*
X124995714Y-100185714D01*
X125067142Y-100114285D01*
X125138571Y-99971428D01*
X125138571Y-99757142D01*
X125138571Y-100900000D02*
X124138571Y-100900000D01*
X124424285Y-100900000D02*
X124281428Y-100971428D01*
X124210000Y-101042857D01*
X124138571Y-101185714D01*
X124138571Y-101328571D01*
X125067142Y-101757142D02*
X125138571Y-101900000D01*
X125138571Y-102185714D01*
X125067142Y-102328571D01*
X124924285Y-102400000D01*
X124852857Y-102400000D01*
X124710000Y-102328571D01*
X124638571Y-102185714D01*
X124638571Y-101971428D01*
X124567142Y-101828571D01*
X124424285Y-101757142D01*
X124352857Y-101757142D01*
X124210000Y-101828571D01*
X124138571Y-101971428D01*
X124138571Y-102185714D01*
X124210000Y-102328571D01*
%TO.C,G\u002A\u002A\u002A*%
G36*
X116551738Y-93469952D02*
G01*
X116557086Y-93472659D01*
X116570669Y-93490008D01*
X116580531Y-93526541D01*
X116587230Y-93589358D01*
X116591324Y-93685555D01*
X116593370Y-93822231D01*
X116593929Y-94006484D01*
X116593923Y-94044508D01*
X116593519Y-94215717D01*
X116591957Y-94340811D01*
X116588507Y-94426997D01*
X116582437Y-94481483D01*
X116573019Y-94511478D01*
X116559521Y-94524190D01*
X116541214Y-94526825D01*
X116532804Y-94526437D01*
X116503411Y-94511770D01*
X116484480Y-94466896D01*
X116470102Y-94379587D01*
X116465974Y-94335033D01*
X116461388Y-94233350D01*
X116459478Y-94107371D01*
X116459996Y-93968378D01*
X116462689Y-93827653D01*
X116467309Y-93696476D01*
X116473604Y-93586131D01*
X116481325Y-93507897D01*
X116490220Y-93473056D01*
X116504629Y-93465815D01*
X116551738Y-93469952D01*
G37*
G36*
X119066579Y-94681179D02*
G01*
X118984914Y-94772163D01*
X118898678Y-94850422D01*
X118822239Y-94900255D01*
X118787307Y-94912267D01*
X118678477Y-94928454D01*
X118533157Y-94930433D01*
X118453586Y-94926446D01*
X118358480Y-94914088D01*
X118285058Y-94889827D01*
X118213089Y-94848485D01*
X118180582Y-94828205D01*
X118093530Y-94793009D01*
X118025204Y-94803448D01*
X117966275Y-94859954D01*
X117962594Y-94864776D01*
X117942531Y-94882010D01*
X117909394Y-94894207D01*
X117854862Y-94902216D01*
X117770616Y-94906885D01*
X117648334Y-94909064D01*
X117479697Y-94909602D01*
X117028845Y-94909602D01*
X116982270Y-94827751D01*
X116977556Y-94819656D01*
X116940635Y-94767251D01*
X116913585Y-94745728D01*
X116898687Y-94751346D01*
X116849185Y-94782801D01*
X116783010Y-94832720D01*
X116704253Y-94886945D01*
X116622075Y-94917279D01*
X116512137Y-94931633D01*
X116459165Y-94934696D01*
X116299764Y-94930342D01*
X116177382Y-94900691D01*
X116082086Y-94843712D01*
X116009094Y-94802089D01*
X115931604Y-94806561D01*
X115858254Y-94865532D01*
X115843012Y-94878416D01*
X115812975Y-94889962D01*
X115763027Y-94898323D01*
X115686217Y-94903983D01*
X115575589Y-94907428D01*
X115424191Y-94909139D01*
X115225070Y-94909602D01*
X115041197Y-94909462D01*
X114890432Y-94908570D01*
X114780328Y-94906238D01*
X114703632Y-94901775D01*
X114653093Y-94894493D01*
X114621459Y-94883703D01*
X114601478Y-94868713D01*
X114585899Y-94848836D01*
X114584632Y-94846981D01*
X114571428Y-94819208D01*
X114561284Y-94776185D01*
X114557760Y-94745555D01*
X114734725Y-94745555D01*
X115062820Y-94745555D01*
X115065567Y-94260248D01*
X115065742Y-94231903D01*
X115067688Y-94066919D01*
X115071343Y-93952373D01*
X115077267Y-93888832D01*
X115086021Y-93876858D01*
X115098166Y-93917018D01*
X115114260Y-94009876D01*
X115134866Y-94155995D01*
X115160542Y-94355942D01*
X115209275Y-94745555D01*
X115326197Y-94745555D01*
X115354779Y-94746265D01*
X115388691Y-94746833D01*
X115414221Y-94740790D01*
X115433819Y-94721371D01*
X115449936Y-94681810D01*
X115465024Y-94615339D01*
X115481534Y-94515193D01*
X115501918Y-94374606D01*
X115528627Y-94186811D01*
X115535716Y-94138097D01*
X115555949Y-94005886D01*
X115573985Y-93897494D01*
X115588083Y-93823040D01*
X115596501Y-93792642D01*
X115600317Y-93809719D01*
X115604046Y-93873201D01*
X115607000Y-93975426D01*
X115608944Y-94108000D01*
X115609645Y-94262526D01*
X115609645Y-94745555D01*
X115937739Y-94745555D01*
X115937739Y-93909173D01*
X116077183Y-93909173D01*
X116078315Y-94083172D01*
X116086570Y-94248823D01*
X116101181Y-94394580D01*
X116121378Y-94508898D01*
X116146393Y-94580229D01*
X116198875Y-94645136D01*
X116270421Y-94702904D01*
X116271021Y-94703256D01*
X116364679Y-94738341D01*
X116408126Y-94745555D01*
X116486786Y-94758616D01*
X116612753Y-94761748D01*
X116717000Y-94745555D01*
X117140753Y-94745555D01*
X117523531Y-94745555D01*
X117523531Y-94116707D01*
X117660237Y-94116707D01*
X117660237Y-94745555D01*
X118043014Y-94745555D01*
X118043014Y-94104650D01*
X118097696Y-94104650D01*
X118097962Y-94108472D01*
X118113789Y-94114493D01*
X118141319Y-94085141D01*
X118147971Y-94069861D01*
X118129262Y-94073084D01*
X118117116Y-94081524D01*
X118097696Y-94104650D01*
X118043014Y-94104650D01*
X118043014Y-93870635D01*
X118201271Y-93870635D01*
X118587443Y-93870635D01*
X118595476Y-93672412D01*
X118596218Y-93654632D01*
X118602192Y-93558534D01*
X118612100Y-93504052D01*
X118629560Y-93479748D01*
X118658191Y-93474188D01*
X118664059Y-93474295D01*
X118681575Y-93478406D01*
X118694309Y-93493832D01*
X118703021Y-93527802D01*
X118708473Y-93587543D01*
X118711425Y-93680283D01*
X118712638Y-93813250D01*
X118712874Y-93993671D01*
X118712863Y-94049417D01*
X118712810Y-94069861D01*
X118712430Y-94215815D01*
X118710806Y-94336784D01*
X118707230Y-94419551D01*
X118700942Y-94471344D01*
X118691180Y-94499390D01*
X118677183Y-94510918D01*
X118658191Y-94513154D01*
X118653283Y-94513074D01*
X118626468Y-94505538D01*
X118610307Y-94477625D01*
X118601183Y-94417901D01*
X118595476Y-94314930D01*
X118587443Y-94116707D01*
X118207061Y-94116707D01*
X118207104Y-94287589D01*
X118207819Y-94325449D01*
X118232590Y-94489324D01*
X118293233Y-94613165D01*
X118390489Y-94698637D01*
X118482515Y-94734398D01*
X118543840Y-94745555D01*
X118609633Y-94757525D01*
X118740795Y-94762053D01*
X118850607Y-94745401D01*
X118865511Y-94739958D01*
X118942204Y-94696105D01*
X119014654Y-94635118D01*
X119095651Y-94550576D01*
X119095651Y-93436766D01*
X119018124Y-93355846D01*
X118996727Y-93335290D01*
X118876187Y-93261304D01*
X118733160Y-93224218D01*
X118582710Y-93224415D01*
X118439904Y-93262275D01*
X118319806Y-93338179D01*
X118282150Y-93373875D01*
X118247449Y-93416590D01*
X118227779Y-93466142D01*
X118217585Y-93538472D01*
X118211313Y-93649520D01*
X118201271Y-93870635D01*
X118043014Y-93870635D01*
X118043014Y-93241787D01*
X117660237Y-93241787D01*
X117660237Y-93815953D01*
X117523531Y-93815953D01*
X117523531Y-93241787D01*
X117140753Y-93241787D01*
X117140753Y-94745555D01*
X116717000Y-94745555D01*
X116717991Y-94745401D01*
X116732895Y-94739958D01*
X116809589Y-94696105D01*
X116882039Y-94635118D01*
X116963035Y-94550576D01*
X116963035Y-93428974D01*
X116864213Y-93338410D01*
X116761796Y-93267888D01*
X116619750Y-93222269D01*
X116471135Y-93220636D01*
X116329241Y-93262785D01*
X116207359Y-93348512D01*
X116163398Y-93394700D01*
X116131121Y-93440636D01*
X116111212Y-93495551D01*
X116098376Y-93574642D01*
X116087321Y-93693106D01*
X116083943Y-93738374D01*
X116077183Y-93909173D01*
X115937739Y-93909173D01*
X115937739Y-93239735D01*
X115684833Y-93247597D01*
X115431927Y-93255458D01*
X115388185Y-93563498D01*
X115371516Y-93675262D01*
X115354055Y-93780476D01*
X115339737Y-93854320D01*
X115330604Y-93885378D01*
X115330505Y-93885467D01*
X115322084Y-93864783D01*
X115309513Y-93799881D01*
X115294474Y-93700740D01*
X115278651Y-93577338D01*
X115240538Y-93255458D01*
X114987632Y-93247597D01*
X114734725Y-93239735D01*
X114734725Y-94745555D01*
X114557760Y-94745555D01*
X114553824Y-94711342D01*
X114548674Y-94618107D01*
X114545459Y-94489909D01*
X114543805Y-94320176D01*
X114543337Y-94102339D01*
X114543337Y-93416607D01*
X114712115Y-93187105D01*
X114999392Y-93187105D01*
X115019545Y-93187114D01*
X115141809Y-93188193D01*
X115220920Y-93192356D01*
X115267042Y-93201448D01*
X115290337Y-93217311D01*
X115300969Y-93241787D01*
X115320215Y-93285300D01*
X115347635Y-93289690D01*
X115371744Y-93240839D01*
X115374462Y-93231510D01*
X115386991Y-93210236D01*
X115414029Y-93197292D01*
X115465608Y-93191133D01*
X115551761Y-93190215D01*
X115682521Y-93192992D01*
X115978751Y-93200775D01*
X115987237Y-93303305D01*
X115989096Y-93321725D01*
X116001064Y-93381660D01*
X116016298Y-93405835D01*
X116022696Y-93403866D01*
X116061055Y-93375799D01*
X116114249Y-93325072D01*
X116215872Y-93239872D01*
X116355301Y-93179036D01*
X116523751Y-93159764D01*
X116668935Y-93173457D01*
X116819060Y-93220412D01*
X116935321Y-93295817D01*
X116994362Y-93325703D01*
X117050049Y-93305164D01*
X117093592Y-93235345D01*
X117098642Y-93225177D01*
X117115338Y-93210935D01*
X117148418Y-93201165D01*
X117205540Y-93195242D01*
X117294358Y-93192545D01*
X117422529Y-93192449D01*
X117597710Y-93194333D01*
X118084026Y-93200775D01*
X118092511Y-93303305D01*
X118099187Y-93358125D01*
X118117137Y-93398222D01*
X118151282Y-93389482D01*
X118209131Y-93333875D01*
X118321196Y-93244863D01*
X118461030Y-93186338D01*
X118613998Y-93160897D01*
X118768357Y-93167965D01*
X118912367Y-93206970D01*
X119034284Y-93277337D01*
X119122367Y-93378493D01*
X119133423Y-93398700D01*
X119150481Y-93439316D01*
X119162535Y-93489498D01*
X119170432Y-93558268D01*
X119175022Y-93654649D01*
X119177153Y-93787662D01*
X119177675Y-93966330D01*
X119176837Y-94105347D01*
X119173897Y-94258044D01*
X119169221Y-94387608D01*
X119163204Y-94483524D01*
X119156242Y-94535276D01*
X119149123Y-94550576D01*
X119129304Y-94593171D01*
X119066579Y-94681179D01*
G37*
D12*
%TO.C,REF\u002A\u002A*%
X136020000Y-79740000D02*
X136020000Y-77740000D01*
X133220000Y-77740000D02*
X133220000Y-79740000D01*
X133220000Y-79740000D02*
X136020000Y-79740000D01*
X136020000Y-77740000D02*
X133220000Y-77740000D01*
X136020000Y-84820000D02*
X136020000Y-82820000D01*
X133220000Y-84820000D02*
X136020000Y-84820000D01*
X136020000Y-82820000D02*
X133220000Y-82820000D01*
X133220000Y-82820000D02*
X133220000Y-84820000D01*
X136020000Y-100060000D02*
X136020000Y-98060000D01*
X133220000Y-98060000D02*
X133220000Y-100060000D01*
X133220000Y-100060000D02*
X136020000Y-100060000D01*
X136020000Y-98060000D02*
X133220000Y-98060000D01*
X136020000Y-94980000D02*
X136020000Y-92980000D01*
X133220000Y-94980000D02*
X136020000Y-94980000D01*
X136020000Y-92980000D02*
X133220000Y-92980000D01*
X133220000Y-92980000D02*
X133220000Y-94980000D01*
X133220000Y-87900000D02*
X133220000Y-89900000D01*
X136020000Y-89900000D02*
X136020000Y-87900000D01*
X136020000Y-87900000D02*
X133220000Y-87900000D01*
X133220000Y-89900000D02*
X136020000Y-89900000D01*
%TD*%
M02*
