%TF.GenerationSoftware,KiCad,Pcbnew,(6.0.2)*%
%TF.CreationDate,2022-03-12T14:55:35-05:00*%
%TF.ProjectId,letmein,6c65746d-6569-46e2-9e6b-696361645f70,rev?*%
%TF.SameCoordinates,Original*%
%TF.FileFunction,Soldermask,Bot*%
%TF.FilePolarity,Negative*%
%FSLAX46Y46*%
G04 Gerber Fmt 4.6, Leading zero omitted, Abs format (unit mm)*
G04 Created by KiCad (PCBNEW (6.0.2)) date 2022-03-12 14:55:35*
%MOMM*%
%LPD*%
G01*
G04 APERTURE LIST*
%ADD10R,1.700000X1.700000*%
%ADD11O,1.700000X1.700000*%
%ADD12O,1.600000X1.600000*%
%ADD13C,1.600000*%
%ADD14C,2.100000*%
%ADD15C,2.000000*%
%ADD16R,2.000000X2.000000*%
%ADD17R,1.000000X1.500000*%
G04 APERTURE END LIST*
D10*
%TO.C,LED_STFU*%
X165100000Y-99060000D03*
D11*
X165100000Y-96520000D03*
X165100000Y-93980000D03*
D10*
X165100000Y-91440000D03*
%TD*%
D11*
%TO.C,LED_header*%
X139700000Y-104140000D03*
X137160000Y-104140000D03*
X134620000Y-104140000D03*
X132080000Y-104140000D03*
X129540000Y-104140000D03*
D10*
X127000000Y-104140000D03*
X124460000Y-104140000D03*
X121920000Y-104140000D03*
X119380000Y-104140000D03*
X116840000Y-104140000D03*
%TD*%
%TO.C,Button_ACK*%
X109220000Y-81280000D03*
D11*
X109220000Y-83820000D03*
%TD*%
%TO.C,TinyS2*%
X144780000Y-78740000D03*
X144780000Y-81280000D03*
X144780000Y-83820000D03*
X144780000Y-86360000D03*
X144780000Y-88900000D03*
X144780000Y-91440000D03*
X144780000Y-93980000D03*
X144780000Y-96520000D03*
X144780000Y-99060000D03*
X144780000Y-101600000D03*
X144780000Y-104140000D03*
%TD*%
D12*
%TO.C,R_lvl_1*%
X139700000Y-93980000D03*
D13*
X129540000Y-93980000D03*
%TD*%
%TO.C,R_N_str*%
X129540000Y-83820000D03*
D12*
X139700000Y-83820000D03*
%TD*%
D14*
%TO.C,REF\u002A\u002A*%
X109220000Y-76200000D03*
%TD*%
%TO.C,REF\u002A\u002A*%
X109220000Y-104140000D03*
%TD*%
D15*
%TO.C,Buzzer*%
X116840000Y-96500000D03*
D16*
X116840000Y-88900000D03*
%TD*%
D14*
%TO.C,REF\u002A\u002A*%
X165100000Y-71120000D03*
%TD*%
D12*
%TO.C,R_L_well*%
X139700000Y-99060000D03*
D13*
X129540000Y-99060000D03*
%TD*%
D14*
%TO.C,REF\u002A\u002A*%
X165100000Y-104140000D03*
%TD*%
D12*
%TO.C,R_S_str*%
X139700000Y-78740000D03*
D13*
X129540000Y-78740000D03*
%TD*%
D10*
%TO.C, *%
X160020000Y-76200000D03*
D11*
X160020000Y-78740000D03*
X160020000Y-81280000D03*
X160020000Y-83820000D03*
X160020000Y-86360000D03*
X160020000Y-88900000D03*
X160020000Y-91440000D03*
X160020000Y-93980000D03*
X160020000Y-96520000D03*
X160020000Y-99060000D03*
X160020000Y-101600000D03*
X160020000Y-104140000D03*
%TD*%
D12*
%TO.C,R_lvl_A*%
X139700000Y-88900000D03*
D13*
X129540000Y-88900000D03*
%TD*%
D17*
%TO.C,REF\u002A\u002A*%
X135270000Y-78740000D03*
X133970000Y-78740000D03*
%TD*%
%TO.C,REF\u002A\u002A*%
X135270000Y-83820000D03*
X133970000Y-83820000D03*
%TD*%
%TO.C,REF\u002A\u002A*%
X135270000Y-99060000D03*
X133970000Y-99060000D03*
%TD*%
%TO.C,REF\u002A\u002A*%
X135270000Y-93980000D03*
X133970000Y-93980000D03*
%TD*%
%TO.C,REF\u002A\u002A*%
X135270000Y-88900000D03*
X133970000Y-88900000D03*
%TD*%
M02*
